# xmcd
#
# Track frame offsets: 
#        150
#        21313
#        38516
#        57445
#        74381
#        94155
#        113294
#        129913
#        149705
#        168155
#        183488
#
# Disc length: 2626 seconds
#
# Revision: 0
# Processed by: cddbd v1.5.2PL0 Copyright (c) Steve Scherf et al.
# Submitted via: ExactAudioCopy v1.0b1
#
DISCID=920a400b
DTITLE=Angel Forrest - Come Alive
DYEAR=2010
DGENRE=Blues
TTITLE0=Tell Me Why
TTITLE1=Courage
TTITLE2=Come Alive
TTITLE3=She's The One
TTITLE4=Move On
TTITLE5=Breakdown
TTITLE6=One Way
TTITLE7=That's How I Know
TTITLE8=The Colour Blue
TTITLE9=I Believe
TTITLE10=Le Instrumental
EXTD=
EXTT0=
EXTT1=
EXTT2=
EXTT3=
EXTT4=
EXTT5=
EXTT6=
EXTT7=
EXTT8=
EXTT9=
EXTT10=
PLAYORDER=
